HIERARCHY
ROOT Hips
{
 OFFSET 0.000000 0.000000 0.000000
 CHANNELS 6 Xposition Yposition Zposition Yrotation Xrotation Zrotation
 JOINT Chest
 {
  OFFSET 0.000000 9.585900 0.002600
  CHANNELS 3 Yrotation Xrotation Zrotation
  JOINT Chest2
  {
   OFFSET 0.000000 9.601200 -0.005300
   CHANNELS 3 Yrotation Xrotation Zrotation
   JOINT Chest3
   {
    OFFSET 0.000000 9.561800 0.000000
    CHANNELS 3 Yrotation Xrotation Zrotation
    JOINT Chest4
    {
     OFFSET 0.000000 9.552100 0.000000
     CHANNELS 3 Yrotation Xrotation Zrotation
     JOINT Neck
     {
      OFFSET 0.000000 14.453000 0.000000
      CHANNELS 3 Yrotation Xrotation Zrotation
      JOINT Head
      {
       OFFSET 0.000000 8.936500 -0.011300
       CHANNELS 3 Yrotation Xrotation Zrotation
       End Site
       {
        OFFSET 0.000000 17.073600 -0.006000
       }
      }
     }
     JOINT RightCollar
     {
      OFFSET -2.921100 9.558500 0.000000
      CHANNELS 3 Yrotation Xrotation Zrotation
      JOINT RightShoulder
      {
       OFFSET -13.519700 0.000000 0.000000
       CHANNELS 3 Yrotation Xrotation Zrotation
       JOINT RightElbow
       {
        OFFSET 0.000000 -29.696600 0.000000
        CHANNELS 3 Yrotation Xrotation Zrotation
        JOINT RightWrist
        {
         OFFSET 0.000000 -24.004700 0.000000
         CHANNELS 3 Yrotation Xrotation Zrotation
         End Site
         {
          OFFSET 0.000000 -17.728500 0.000000
         }
        }
       }
      }
     }
     JOINT LeftCollar
     {
      OFFSET 2.921100 9.558500 0.000000
      CHANNELS 3 Yrotation Xrotation Zrotation
      JOINT LeftShoulder
      {
       OFFSET 13.519700 0.000000 0.000000
       CHANNELS 3 Yrotation Xrotation Zrotation
       JOINT LeftElbow
       {
        OFFSET 0.000000 -29.696600 0.000000
        CHANNELS 3 Yrotation Xrotation Zrotation
        JOINT LeftWrist
        {
         OFFSET 0.000000 -24.004700 0.000000
         CHANNELS 3 Yrotation Xrotation Zrotation
         End Site
         {
          OFFSET 0.000000 -17.728500 0.000000
         }
        }
       }
      }
     }
    }
   }
  }
 }
 JOINT RightHip
 {
  OFFSET -7.771700 -0.012900 -0.001300
  CHANNELS 3 Yrotation Xrotation Zrotation
  JOINT RightKnee
  {
   OFFSET 0.000000 -40.869800 0.001200
   CHANNELS 3 Yrotation Xrotation Zrotation
   JOINT RightAnkle
   {
    OFFSET 0.000000 -39.717900 0.002100
    CHANNELS 3 Yrotation Xrotation Zrotation
    JOINT RightToe
    {
     OFFSET 0.000000 -4.965400 11.033500
     CHANNELS 3 Yrotation Xrotation Zrotation
     End Site
     {
      OFFSET 0.000000 -1.423100 5.872300
     }
    }
   }
  }
 }
 JOINT LeftHip
 {
  OFFSET 7.771700 -0.012900 -0.001300
  CHANNELS 3 Yrotation Xrotation Zrotation
  JOINT LeftKnee
  {
   OFFSET 0.000000 -40.869800 0.001200
   CHANNELS 3 Yrotation Xrotation Zrotation
   JOINT LeftAnkle
   {
    OFFSET 0.000000 -39.717900 0.002100
    CHANNELS 3 Yrotation Xrotation Zrotation
    JOINT LeftToe
    {
     OFFSET 0.000000 -4.965400 11.033500
     CHANNELS 3 Yrotation Xrotation Zrotation
     End Site
     {
      OFFSET 0.000000 -1.423100 5.872300
     }
    }
   }
  }
 }
}
MOTION
Frames: 12
Frame Time: 0.008333
0.000000 85.388000 0.000000 0.000000 -5.767877 0.000000 0.000000 11.653817 0.000000 0.000000 -5.885947 0.000000 0.000000 -0.000000 0.000000 0.000000 -0.000000 0.000000 0.000000 12.528835 0.000000 0.000000 0.711642 0.000000 0.000000 -0.000000 0.000000 0.000000 0.000000 -90.000000 0.000000 -2.309062 0.000000 0.000000 2.309062 0.000000 0.000000 -0.000000 0.000000 0.000000 -0.000000 90.000000 0.000000 -2.309062 0.000000 0.000000 2.309062 0.000000 0.000000 8.520406 0.000000 0.000000 1.905762 0.000000 -0.000000 -4.658285 0.000000 0.000000 -0.000000 0.000000 0.000000 8.520406 0.000000 0.000000 1.905762 0.000000 -0.000000 -4.658285 0.000000 0.000000 -0.000000 0.000000
-14.813656 55.359445 24.756137 -170.420221 -27.017704 -10.292349 -1.568454 9.874065 3.500943 -0.821398 5.672029 1.667852 -1.039314 7.061347 2.077702 -0.833238 5.656742 1.670948 7.763474 27.394683 1.294794 8.338774 4.754687 -0.326359 -0.122993 -1.978362 -2.240982 -6.718107 -23.359194 9.712482 -42.632858 -56.288851 50.049973 5.392902 5.099262 -29.055753 -11.209165 1.015040 -3.714837 4.431048 -1.132761 -8.243603 -105.398925 -86.003642 113.144244 22.915252 -24.408536 10.188447 -20.490370 -38.549250 0.521807 32.839407 88.461443 28.256084 0.574699 -19.742366 3.635043 -0.051753 0.496141 0.016600 -14.690078 -50.037566 9.648740 -177.220019 80.933336 175.655214 -3.753656 -17.731968 6.498386 -0.005455 -0.516092 0.039475
-14.841137 55.349510 24.738674 -170.400175 -26.960237 -10.324276 -1.643783 9.836064 3.489015 -0.878839 5.599073 1.681790 -1.074059 7.002593 2.091240 -0.878930 5.599048 1.681736 7.677645 27.420530 1.264864 8.248460 4.780253 -0.340240 -0.068367 -1.944984 -2.239384 -6.074145 -23.234676 9.489030 -43.013729 -55.492992 49.233653 5.334342 4.773242 -28.582517 -11.136240 0.906164 -3.766840 4.317891 -1.334045 -8.172513 -101.511452 -85.948301 109.296089 23.000793 -24.381270 10.066914 -20.454457 -38.585076 0.540140 30.509538 88.508412 25.924839 0.582089 -19.770590 3.713280 -0.028808 0.500008 0.009977 -14.739661 -50.097066 9.694927 -176.787665 80.900281 176.071021 -3.745090 -17.737568 6.507712 0.015819 -0.521297 0.061306
-14.866237 55.334777 24.727937 -170.371448 -26.832807 -10.383718 -1.723368 9.725369 3.517354 -0.920218 5.547376 1.691300 -1.125823 6.938179 2.102616 -0.920295 5.547368 1.691285 7.577309 27.430529 1.227054 8.143012 4.784374 -0.359826 -0.030695 -1.906078 -2.215410 -5.619949 -23.087345 9.387764 -43.412509 -54.784485 48.605252 5.264442 4.423480 -27.890068 -11.063588 0.806766 -3.826779 4.198117 -1.575634 -8.053985 -97.628448 -85.919546 105.422643 23.084890 -24.255008 9.921430 -20.538275 -38.679041 0.637371 29.315085 88.534757 24.682524 0.650896 -19.797335 3.753447 -0.102491 0.505755 0.015850 -14.864141 -50.227258 9.799363 -176.330108 80.862832 176.512916 -3.697895 -17.753296 6.526744 0.008345 -0.513045 0.060648
-14.894274 55.321481 24.713376 -170.347021 -26.725404 -10.432046 -1.794702 9.629708 3.543865 -0.956468 5.504320 1.699896 -1.171179 6.884526 2.112840 -0.956471 5.504328 1.699882 7.461525 27.429357 1.183021 8.021226 4.772976 -0.382929 -0.024285 -1.872747 -2.167017 -5.490597 -22.928216 9.423906 -43.473033 -54.237717 48.014142 5.204987 4.164087 -27.217989 -11.004801 0.706413 -3.891887 4.070216 -1.842554 -7.894806 -93.774733 -85.926093 101.559501 23.169409 -24.041777 9.750285 -20.572622 -38.756909 0.707076 27.999340 88.565271 23.354557 0.600884 -19.823552 3.825474 -0.068871 0.515769 0.022716 -14.972760 -50.334545 9.884118 -175.835836 80.826329 176.981065 -3.631154 -17.773839 6.553696 -0.005881 -0.508447 0.056036
-14.924377 55.311273 24.694072 -170.328836 -26.656595 -10.464540 -1.852357 9.562489 3.561870 -0.957866 5.490496 1.704550 -1.242633 6.812062 2.127601 -0.989486 5.466253 1.707081 7.337415 27.427774 1.139502 7.889977 4.760374 -0.403548 -0.046668 -1.828490 -2.098967 -5.709264 -22.770993 9.576205 -43.035767 -53.901037 47.372050 5.190848 4.066603 -26.747463 -10.964787 0.618698 -3.959465 3.948049 -2.115747 -7.703444 -89.920307 -85.955096 97.680823 23.243653 -23.764220 9.575730 -20.573443 -38.802841 0.729839 27.474880 88.586731 22.826245 0.556246 -19.852477 3.882516 -0.071000 0.520020 0.022560 -15.053029 -50.400647 9.946854 -175.301007 80.790669 177.484040 -3.592178 -17.789168 6.578446 0.024722 -0.515012 0.067549
-14.952775 55.302463 24.675520 -170.312576 -26.596310 -10.493379 -1.889665 9.502116 3.582311 -1.022015 5.429272 1.711710 -1.268277 6.773335 2.130824 -1.021838 5.426997 1.712165 7.213187 27.434530 1.101612 7.757656 4.758502 -0.417753 -0.089294 -1.746199 -2.019405 -6.188186 -22.626885 9.805861 -42.134760 -53.787172 46.649832 5.243262 4.129846 -26.555480 -10.939051 0.565587 -4.027827 3.860300 -2.377948 -7.491647 -86.090463 -85.983273 93.794537 23.301149 -23.439005 9.422068 -20.561032 -38.841568 0.720594 28.025224 88.591650 23.396613 0.531801 -19.884746 3.904592 -0.077154 0.521354 0.016130 -15.139842 -50.455753 10.014252 -174.819430 80.757460 177.928061 -3.565293 -17.804751 6.601976 0.029204 -0.514986 0.067821
-14.980056 55.295065 24.658370 -170.293599 -26.546907 -10.513255 -1.929334 9.448715 3.593508 -1.088449 5.354543 1.718510 -1.293534 6.738347 2.131156 -1.053909 5.386902 1.715570 7.093066 27.447473 1.070726 7.628707 4.764925 -0.425094 -0.147854 -1.632253 -1.936737 -6.754810 -22.498775 10.050182 -40.961529 -53.860734 45.880348 5.333105 4.279730 -26.605354 -10.920459 0.542372 -4.090795 3.824561 -2.618971 -7.273936 -82.365126 -86.000262 89.966683 23.345356 -23.078390 9.296547 -20.506898 -38.873019 0.702617 27.036269 88.612828 22.421051 0.516477 -19.910059 3.971158 -0.084667 0.523780 0.012112 -15.214382 -50.500358 10.060862 -174.620406 80.728694 178.095066 -3.576974 -17.818734 6.624935 0.000425 -0.509459 0.055106
-15.005501 55.289302 24.642589 -170.282857 -26.514301 -10.523246 -2.011372 9.363307 3.591664 -1.093424 5.341244 1.719761 -1.331800 6.692930 2.135095 -1.084433 5.350508 1.718946 6.977281 27.459064 1.045521 7.503448 4.770019 -0.427132 -0.218860 -1.518121 -1.857012 -7.223821 -22.387179 10.246499 -39.774329 -54.050295 45.123361 5.428822 4.417588 -26.797548 -10.910321 0.527070 -4.144776 3.838717 -2.834574 -7.057710 -78.830423 -86.012017 86.293438 23.385799 -22.706719 9.190696 -20.501984 -38.892618 0.715366 26.508400 88.626394 21.857842 0.479332 -19.931282 4.032721 -0.071937 0.524271 0.008597 -15.254316 -50.530387 10.083755 -174.440918 80.703921 178.257707 -3.609468 -17.829222 6.649471 0.031559 -0.510074 0.051830
-15.028172 55.285580 24.627496 -170.279548 -26.504385 -10.531289 -2.045950 9.327687 3.594203 -1.099056 5.333845 1.720879 -1.400328 6.617870 2.146125 -1.112641 5.318913 1.723675 6.867041 27.467045 1.024657 7.383462 4.771007 -0.425503 -0.295643 -1.417399 -1.780560 -7.506350 -22.291262 10.368561 -38.762535 -54.278810 44.452848 5.527247 4.468264 -27.028877 -10.914544 0.510755 -4.189136 3.890053 -3.026690 -6.847752 -75.530077 -86.027269 82.834080 23.426729 -22.354044 9.098542 -20.389328 -38.886519 0.701440 24.528152 88.644600 19.871093 0.449765 -19.956807 4.122832 -0.079215 0.528646 0.009015 -15.259968 -50.536960 10.081433 -174.212832 80.683593 178.474633 -3.580220 -17.849090 6.665660 0.022259 -0.507909 0.047403
-15.045898 55.281744 24.617410 -170.279652 -26.485998 -10.549473 -2.104901 9.266167 3.598092 -1.078282 5.346769 1.727174 -1.469671 6.549738 2.157985 -1.139717 5.290428 1.729737 6.767358 27.472435 1.008425 7.274466 4.769593 -0.421036 -0.368323 -1.328770 -1.709361 -7.625723 -22.208867 10.424094 -38.008463 -54.484029 43.938174 5.629171 4.396504 -27.211034 -10.932129 0.492928 -4.222528 3.963801 -3.198405 -6.652103 -72.436375 -86.045700 79.574340 23.466479 -22.040154 9.020599 -20.379584 -38.889910 0.737641 23.803178 88.649095 19.102472 0.429280 -19.965884 4.186127 -0.084318 0.527785 0.005247 -15.271317 -50.557016 10.088118 -174.142734 80.661992 178.559124 -3.576124 -17.860580 6.669227 0.037365 -0.510062 0.044644
-15.060386 55.278655 24.610164 -170.277167 -26.472734 -10.573950 -2.168720 9.216225 3.604902 -1.147459 5.279014 1.736590 -1.453350 6.571120 2.158283 -1.166740 5.264682 1.736551 6.680515 27.474481 0.996958 7.178959 4.765014 -0.414257 -0.431137 -1.258491 -1.648317 -7.642547 -22.139259 10.437051 -37.525391 -54.614000 43.627261 5.745689 4.206251 -27.302150 -10.954844 0.468999 -4.249874 4.043384 -3.349935 -6.470807 -69.433239 -86.062673 76.412894 23.513321 -21.783588 8.954514 -20.372669 -38.887219 0.771098 23.213225 88.650397 18.483201 0.408727 -19.968158 4.239485 -0.086080 0.523794 -0.002163 -15.284909 -50.573695 10.089477 -174.169210 80.642581 178.562002 -3.566338 -17.870052 6.654872 0.046422 -0.512118 0.044150
